<?xml version="1.0" encoding="utf-8"?>
<!-- Generator: Adobe Illustrator 25.2.0, SVG Export Plug-In . SVG Version: 6.00 Build 0)  -->
<svg version="1.0" xmlns="http://www.w3.org/2000/svg" xmlns:xlink="http://www.w3.org/1999/xlink" x="0px" y="0px" width="188px"
	 height="108px" viewBox="0 0 188 108" enable-background="new 0 0 188 108" xml:space="preserve">
<g id="Layer_1">
</g>
<g id="outline-dark">
</g>
<g id="outline-white">
	<g>
		<g>
			<path fill="#4169e1" d="M50.6,87.8l-2,7.7h-1.2l-1.6-6.4l-1.6,6.4H43l-2.1-7.7H42l1.6,6.4l1.6-6.4h1.1l1.6,6.4l1.6-6.4H50.6z"/>
			<path fill="#4169e1" d="M59.6,92.7h-4.3c0,0.4,0.1,0.7,0.2,0.9c0.1,0.3,0.3,0.5,0.4,0.6c0.2,0.2,0.4,0.3,0.6,0.4
				c0.2,0.1,0.5,0.1,0.8,0.1c0.4,0,0.8-0.1,1.2-0.2c0.4-0.2,0.7-0.3,0.9-0.5h0.1v1.1c-0.3,0.1-0.7,0.3-1,0.3s-0.7,0.1-1.1,0.1
				c-1,0-1.7-0.3-2.3-0.8c-0.5-0.5-0.8-1.3-0.8-2.2c0-0.9,0.3-1.7,0.8-2.2c0.5-0.6,1.2-0.8,2.1-0.8c0.8,0,1.4,0.2,1.8,0.7
				c0.4,0.5,0.6,1.1,0.6,1.9V92.7z M58.7,92c0-0.5-0.1-0.9-0.4-1.2c-0.3-0.3-0.6-0.4-1.2-0.4c-0.5,0-0.9,0.2-1.3,0.5
				c-0.3,0.3-0.5,0.7-0.5,1.1H58.7z"/>
			<path fill="#4169e1" d="M75.9,95.5h-1v-0.6c-0.1,0.1-0.2,0.1-0.4,0.2c-0.1,0.1-0.3,0.2-0.4,0.3c-0.2,0.1-0.4,0.1-0.6,0.2
				c-0.2,0.1-0.5,0.1-0.7,0.1c-0.5,0-1-0.2-1.3-0.5c-0.4-0.3-0.5-0.8-0.5-1.3c0-0.4,0.1-0.8,0.3-1.1c0.2-0.3,0.5-0.5,0.8-0.6
				c0.4-0.2,0.8-0.3,1.3-0.3c0.5-0.1,1-0.1,1.6-0.1v-0.1c0-0.2,0-0.4-0.1-0.5c-0.1-0.1-0.2-0.3-0.3-0.3c-0.1-0.1-0.3-0.1-0.5-0.2
				c-0.2,0-0.4,0-0.6,0c-0.3,0-0.5,0-0.9,0.1s-0.6,0.2-1,0.3h-0.1v-1c0.2-0.1,0.5-0.1,0.8-0.2c0.4-0.1,0.7-0.1,1.1-0.1
				c0.4,0,0.8,0,1.1,0.1c0.3,0.1,0.6,0.2,0.8,0.3c0.2,0.2,0.4,0.4,0.5,0.6c0.1,0.3,0.2,0.6,0.2,0.9V95.5z M74.9,94.1v-1.6
				c-0.3,0-0.7,0-1.1,0.1c-0.4,0-0.7,0.1-1,0.1c-0.3,0.1-0.5,0.2-0.7,0.4c-0.2,0.2-0.3,0.4-0.3,0.7c0,0.3,0.1,0.6,0.3,0.7
				c0.2,0.2,0.5,0.3,0.9,0.3c0.3,0,0.7-0.1,0.9-0.2C74.4,94.4,74.6,94.3,74.9,94.1z"/>
			<path fill="#4169e1" d="M84.6,90.8L84.6,90.8c-0.2,0-0.3-0.1-0.5-0.1c-0.1,0-0.3,0-0.5,0c-0.3,0-0.6,0.1-0.9,0.2
				c-0.3,0.1-0.6,0.3-0.8,0.5v4.1h-1v-5.8h1v0.9c0.4-0.3,0.7-0.5,1-0.7c0.3-0.1,0.6-0.2,0.9-0.2c0.2,0,0.3,0,0.4,0
				c0.1,0,0.2,0,0.3,0V90.8z"/>
			<path fill="#4169e1" d="M93.7,92.7h-4.3c0,0.4,0.1,0.7,0.2,0.9c0.1,0.3,0.3,0.5,0.4,0.6c0.2,0.2,0.4,0.3,0.6,0.4
				c0.2,0.1,0.5,0.1,0.8,0.1c0.4,0,0.8-0.1,1.2-0.2c0.4-0.2,0.7-0.3,0.9-0.5h0.1v1.1c-0.3,0.1-0.7,0.3-1,0.3
				c-0.3,0.1-0.7,0.1-1.1,0.1c-1,0-1.7-0.3-2.3-0.8c-0.5-0.5-0.8-1.3-0.8-2.2c0-0.9,0.3-1.7,0.8-2.2c0.5-0.6,1.2-0.8,2.1-0.8
				c0.8,0,1.4,0.2,1.8,0.7c0.4,0.5,0.6,1.1,0.6,1.9V92.7z M92.7,92c0-0.5-0.1-0.9-0.4-1.2c-0.3-0.3-0.6-0.4-1.2-0.4
				c-0.5,0-0.9,0.2-1.3,0.5c-0.3,0.3-0.5,0.7-0.5,1.1H92.7z"/>
			<path fill="#4169e1" d="M110.6,95.5h-5.1v-7.7h5.1v0.9h-4.1v2.1h4.1v0.9h-4.1v2.9h4.1V95.5z"/>
			<path fill="#4169e1" d="M120.1,95.5h-1v-0.6c-0.3,0.2-0.6,0.4-0.9,0.6c-0.3,0.1-0.6,0.2-1,0.2c-0.7,0-1.3-0.3-1.7-0.8
				c-0.4-0.5-0.6-1.3-0.6-2.2c0-0.5,0.1-0.9,0.2-1.3c0.1-0.4,0.3-0.7,0.6-1c0.2-0.3,0.5-0.5,0.8-0.6c0.3-0.1,0.6-0.2,1-0.2
				c0.3,0,0.6,0,0.8,0.1c0.2,0.1,0.5,0.2,0.7,0.3v-2.5h1V95.5z M119.1,94.1v-3.3c-0.3-0.1-0.5-0.2-0.7-0.2c-0.2,0-0.4-0.1-0.7-0.1
				c-0.6,0-1,0.2-1.3,0.6c-0.3,0.4-0.5,0.9-0.5,1.6c0,0.7,0.1,1.2,0.4,1.6c0.2,0.4,0.6,0.5,1.1,0.5c0.3,0,0.6-0.1,0.8-0.2
				C118.6,94.4,118.9,94.3,119.1,94.1z"/>
			<path fill="#4169e1" d="M130,94.8c0,1-0.2,1.7-0.7,2.2c-0.5,0.5-1.1,0.7-2.1,0.7c-0.3,0-0.6,0-0.9-0.1c-0.3,0-0.6-0.1-0.9-0.2v-1
				h0.1c0.2,0.1,0.4,0.1,0.8,0.2c0.3,0.1,0.7,0.1,1,0.1c0.3,0,0.6,0,0.8-0.1c0.2-0.1,0.4-0.2,0.5-0.3c0.1-0.1,0.2-0.3,0.3-0.5
				c0.1-0.2,0.1-0.4,0.1-0.6v-0.5c-0.3,0.2-0.6,0.4-0.9,0.5c-0.3,0.1-0.6,0.2-1,0.2c-0.7,0-1.3-0.2-1.7-0.7
				c-0.4-0.5-0.6-1.2-0.6-2.1c0-0.5,0.1-0.9,0.2-1.3c0.1-0.4,0.3-0.7,0.6-0.9c0.2-0.2,0.5-0.4,0.8-0.6c0.3-0.1,0.6-0.2,1-0.2
				c0.3,0,0.6,0,0.9,0.1s0.5,0.2,0.7,0.3l0.1-0.2h0.9V94.8z M129,93.9v-3.1c-0.3-0.1-0.5-0.2-0.7-0.3c-0.2,0-0.4-0.1-0.7-0.1
				c-0.5,0-1,0.2-1.3,0.5c-0.3,0.4-0.5,0.9-0.5,1.6c0,0.6,0.1,1.1,0.3,1.5c0.2,0.3,0.6,0.5,1.1,0.5c0.3,0,0.6-0.1,0.9-0.2
				C128.5,94.2,128.8,94.1,129,93.9z"/>
			<path fill="#4169e1" d="M140.1,92.7h-4.3c0,0.4,0.1,0.7,0.2,0.9c0.1,0.3,0.3,0.5,0.4,0.6c0.2,0.2,0.4,0.3,0.6,0.4
				c0.2,0.1,0.5,0.1,0.8,0.1c0.4,0,0.8-0.1,1.2-0.2c0.4-0.2,0.7-0.3,0.9-0.5h0.1v1.1c-0.3,0.1-0.7,0.3-1,0.3s-0.7,0.1-1.1,0.1
				c-1,0-1.7-0.3-2.3-0.8c-0.5-0.5-0.8-1.3-0.8-2.2c0-0.9,0.3-1.7,0.8-2.2c0.5-0.6,1.2-0.8,2.1-0.8c0.8,0,1.4,0.2,1.8,0.7
				c0.4,0.5,0.6,1.1,0.6,1.9V92.7z M139.1,92c0-0.5-0.1-0.9-0.4-1.2c-0.3-0.3-0.6-0.4-1.2-0.4c-0.5,0-0.9,0.2-1.3,0.5
				c-0.3,0.3-0.5,0.7-0.5,1.1H139.1z"/>
			<path fill="#4169e1" d="M146.4,95.5h-1.3V94h1.3V95.5z"/>
		</g>
		<g>
			<path fill="#4169e1" d="M43.8,81.8h-5.3L38,77.7h-7.5l-2.4,4.1h-5.5l12.3-20.2H41L43.8,81.8z M37.6,74.1l-0.8-7.2l-4.2,7.2H37.6z
				"/>
			<path fill="#4169e1" d="M60.7,71.2h-0.4c-0.2-0.1-0.5-0.1-0.9-0.2c-0.4,0-0.8-0.1-1.2-0.1c-0.7,0-1.3,0-1.9,0.1
				c-0.6,0.1-1.2,0.2-1.9,0.5L52,81.8h-5l3.6-15.2h5L55,68.8c0.9-0.7,1.9-1.2,2.8-1.7c0.9-0.4,1.9-0.6,2.8-0.6c0.2,0,0.4,0,0.6,0
				c0.2,0,0.4,0,0.6,0L60.7,71.2z"/>
			<path fill="#4169e1" d="M69.7,82.2c-1.1,0-2-0.1-3-0.4c-0.9-0.3-1.7-0.7-2.4-1.2c-0.7-0.5-1.2-1.2-1.6-2
				c-0.4-0.8-0.6-1.7-0.6-2.8c0-1.4,0.3-2.6,0.8-3.8c0.5-1.2,1.3-2.2,2.2-3.1c0.9-0.9,2.1-1.5,3.4-2s2.8-0.8,4.4-0.8
				c0.9,0,1.9,0.1,2.8,0.3c0.9,0.2,1.8,0.5,2.6,0.9l-1,4.2h-0.7c-0.5-0.6-1.2-1.1-1.8-1.4c-0.7-0.3-1.5-0.5-2.3-0.5
				c-1.6,0-2.8,0.5-3.8,1.6c-0.9,1.1-1.4,2.4-1.4,4.1c0,1.1,0.3,2,0.9,2.5c0.6,0.6,1.5,0.8,2.7,0.8c1,0,1.8-0.2,2.6-0.6
				c0.8-0.4,1.5-0.8,2-1.3h0.7l-1,4.2c-1,0.4-1.9,0.7-2.6,0.9C71.8,82.1,70.9,82.2,69.7,82.2z"/>
			<path fill="#4169e1" d="M84.9,82.1c-1.7,0-2.9-0.3-3.7-0.8c-0.7-0.6-1.1-1.4-1.1-2.5c0-0.3,0-0.6,0.1-0.8c0-0.3,0.1-0.6,0.2-0.9
				l1.7-7.2h-2l0.8-3.2h2l1-4.3h5l-1,4.3h4.6l-0.8,3.2H87l-1.3,5.5c-0.1,0.4-0.2,0.8-0.3,1.1c-0.1,0.4-0.1,0.7-0.1,1
				c0,0.5,0.2,0.9,0.5,1.1c0.3,0.2,0.8,0.3,1.4,0.3c0.3,0,0.6,0,1-0.1s0.7-0.2,1-0.3h0.4l-0.8,3.3c-0.6,0.1-1.1,0.2-1.8,0.3
				C86.5,82,85.8,82.1,84.9,82.1z"/>
			<path fill="#4169e1" d="M111.5,66.6l-3.6,15.2h-5l0.4-1.7c-0.5,0.3-1,0.6-1.5,0.9c-0.5,0.3-0.9,0.5-1.3,0.7
				c-0.5,0.2-1,0.4-1.5,0.4c-0.4,0.1-0.9,0.1-1.3,0.1c-1.4,0-2.4-0.3-3.2-1c-0.8-0.6-1.2-1.6-1.2-2.8c0-0.3,0-0.7,0.1-1
				c0-0.3,0.1-0.6,0.2-1l2.3-9.9h5l-1.8,7.5c-0.1,0.6-0.2,1.1-0.3,1.5c-0.1,0.4-0.1,0.8-0.1,1.1c0,0.6,0.1,1,0.4,1.3
				c0.3,0.3,0.8,0.4,1.7,0.4c0.4,0,0.9-0.1,1.4-0.3c0.5-0.2,1.1-0.4,1.7-0.7l2.5-10.8H111.5z"/>
			<path fill="#4169e1" d="M127,71.2h-0.4c-0.2-0.1-0.5-0.1-0.9-0.2c-0.4,0-0.8-0.1-1.2-0.1c-0.7,0-1.3,0-1.9,0.1
				c-0.6,0.1-1.2,0.2-1.9,0.5l-2.4,10.2h-5l3.6-15.2h5l-0.5,2.2c0.9-0.7,1.9-1.2,2.8-1.7c0.9-0.4,1.9-0.6,2.8-0.6c0.2,0,0.4,0,0.6,0
				c0.2,0,0.4,0,0.6,0L127,71.2z"/>
			<path fill="#4169e1" d="M146.9,66.6l-3.6,15.2h-5l0.4-1.7c-0.5,0.3-1,0.6-1.5,0.9s-0.9,0.5-1.3,0.7c-0.5,0.2-1,0.4-1.5,0.4
				c-0.4,0.1-0.9,0.1-1.3,0.1c-1.4,0-2.4-0.3-3.2-1s-1.2-1.6-1.2-2.8c0-0.3,0-0.7,0.1-1c0-0.3,0.1-0.6,0.2-1l2.3-9.9h5l-1.8,7.5
				c-0.1,0.6-0.2,1.1-0.3,1.5c-0.1,0.4-0.1,0.8-0.1,1.1c0,0.6,0.1,1,0.4,1.3c0.3,0.3,0.8,0.4,1.7,0.4c0.4,0,0.9-0.1,1.4-0.3
				c0.5-0.2,1.1-0.4,1.7-0.7l2.5-10.8H146.9z"/>
			<path fill="#4169e1" d="M154.7,82.2c-1.3,0-2.6-0.1-3.8-0.4c-1.2-0.2-2.2-0.5-2.8-0.9l1-4h0.5c0.2,0.2,0.5,0.4,0.8,0.6
				c0.3,0.2,0.7,0.4,1.3,0.6c0.5,0.2,1.1,0.4,1.7,0.5c0.6,0.1,1.3,0.2,2.1,0.2c1.1,0,1.9-0.1,2.5-0.4s0.8-0.6,0.8-1.1
				c0-0.4-0.2-0.6-0.6-0.8s-1.2-0.4-2.5-0.7c-2.1-0.5-3.5-1.1-4.3-1.7c-0.8-0.7-1.2-1.5-1.2-2.5c0-1.7,0.8-3.1,2.3-4.1
				c1.6-1,3.7-1.5,6.3-1.5c1.2,0,2.3,0.1,3.5,0.3c1.2,0.2,2,0.5,2.5,0.7l-0.9,3.8h-0.4c-0.7-0.5-1.4-0.9-2.4-1.2
				c-0.9-0.3-1.9-0.5-2.8-0.5c-1.1,0-1.9,0.1-2.4,0.4c-0.6,0.2-0.8,0.6-0.8,1.1c0,0.4,0.2,0.7,0.7,0.9c0.5,0.2,1.3,0.4,2.3,0.7
				c1.9,0.4,3.3,0.9,4.2,1.6c0.9,0.6,1.3,1.5,1.3,2.7c0,1.7-0.8,3-2.4,4S157.4,82.2,154.7,82.2z"/>
		</g>
		<g>
			<polygon fill="#4169e1" points="48,57.2 139.3,39.4 72.2,10.6 73.1,29.3 88.8,35.3 59.9,39.5 			"/>
		</g>
		<g>
			<g>
				<polygon fill="#4169e1" points="35.3,93.5 11.5,93.5 11.5,20.9 64.3,20.9 64.3,22.2 12.8,22.2 12.8,92.2 35.3,92.2 				"/>
			</g>
		</g>
		<g>
			<g>
				<polygon fill="#4169e1" points="176.5,93.5 154.1,93.5 154.1,92.2 175.2,92.2 175.2,22.2 122.4,22.2 122.4,20.9 176.5,20.9 				
					"/>
			</g>
		</g>
	</g>
</g>
</svg>
