<?xml version="1.0" encoding="utf-8"?>
<svg viewBox="73.963 -2.306 59.991 44.306" width="59.991" height="44.306" fill="none" xmlns="http://www.w3.org/2000/svg">
  <path fill-rule="evenodd" clip-rule="evenodd" d="M100.217 0.245618C99.9951 0.372243 99.7311 0.553199 99.63 0.647854C99.5289 0.742598 99.1261 0.900834 98.7351 0.999529C97.4925 1.31331 96.5799 1.84064 94.8023 3.27222C93.0727 4.66509 92.1981 5.48321 90.7071 7.10302L89.7611 8.13084L89.3797 7.86636C88.463 7.23054 87.9614 6.21027 88.0919 5.24693C88.1926 4.50335 88.1597 4.53371 88.9216 4.48135C89.8269 4.41902 90.2287 4.24974 90.3586 3.8758C90.5825 3.23136 90.1134 2.96033 88.6553 2.89154L87.6095 2.84223L87.3996 2.52792C87.0001 1.92955 86.3314 1.74626 85.9486 2.13035C85.7295 2.35019 85.7798 2.62805 86.15 3.24231L86.4919 3.8097L86.3681 4.44848C86.2919 4.84156 86.2567 5.46741 86.2764 6.0752C86.3195 7.40081 86.5306 7.85873 87.5661 8.87262L88.3137 9.60444L87.8368 10.2197C86.8607 11.4787 86.3199 12.3422 85.7143 13.609C85.3721 14.3247 85.093 14.943 85.0939 14.9829C85.0949 15.023 85.5788 15.3749 86.1693 15.765C86.7599 16.1553 87.2319 16.4858 87.2181 16.4997C87.2043 16.5134 86.67 16.5702 86.0308 16.6258C84.2723 16.7788 84.3394 16.7243 85.1298 17.3573C85.5029 17.6562 85.8081 17.9374 85.8081 17.9824C85.8081 18.0273 85.6974 18.066 85.562 18.0684C85.4266 18.0706 85.0563 18.1212 84.7389 18.1806L84.1619 18.2887L84.9932 18.9846L85.8245 19.6806H85.1562C84.7888 19.6806 84.3673 19.7049 84.2196 19.7345C83.9553 19.7876 83.9505 19.7987 83.9085 20.4546C83.8851 20.8209 83.8475 21.1391 83.8249 21.1618C83.8025 21.1844 83.4843 21.2285 83.118 21.2598C82.7518 21.2913 82.0591 21.4369 81.5788 21.5836C80.7208 21.8456 80.6956 21.8614 80.1469 22.4739C79.8132 22.8464 79.4416 23.3949 79.2241 23.8363L78.8598 24.575L78.2493 24.5496C77.8681 24.5337 77.4794 24.5772 77.2145 24.6655C76.8623 24.7829 76.7812 24.852 76.7374 25.0717C76.6561 25.4794 76.7312 25.5644 77.4078 25.8307C77.9417 26.041 78.1147 26.0694 78.5538 26.0196L79.0709 25.9609L79.6429 26.6249C80.3847 27.4863 80.645 27.6362 81.1405 27.4873C81.3435 27.4262 81.578 27.3004 81.6617 27.2076C81.8052 27.0484 81.8034 27.0175 81.6285 26.6601C81.5266 26.4517 81.2372 26.0465 80.9856 25.7597C80.7339 25.4728 80.528 25.2079 80.528 25.1711C80.528 25.0331 81.0531 24.2947 81.3569 24.0055L81.6721 23.7054L83.673 23.6586L85.6739 23.6117L84.9734 24.3269L84.2729 25.042L84.4952 25.8412C84.6175 26.2808 84.8577 27.0244 85.029 27.4936L85.3404 28.3468L86.4692 28.567C87.09 28.6881 87.5961 28.8094 87.5939 28.8364C87.5916 28.8634 87.2822 29.1272 86.9063 29.4224L86.2228 29.9592L87.5532 30.2236L88.8834 30.488L88.5316 30.6532C88.338 30.7441 87.9253 30.9318 87.6144 31.0703L87.049 31.3222L87.7486 32.1797C88.8923 33.5819 89.6584 34.4159 90.4171 35.0847L91.133 35.7161L92.1174 35.5163C92.6589 35.4065 93.1297 35.3245 93.1636 35.3341C93.1976 35.3437 93.0295 35.6745 92.7899 36.0691C92.5503 36.4638 92.3679 36.8002 92.3843 36.8168C92.4009 36.8333 92.8848 36.8004 93.4598 36.7435C94.0348 36.6867 94.5184 36.6534 94.5342 36.6694C94.5501 36.6855 94.4249 36.9338 94.2562 37.2214C94.0874 37.5088 93.9679 37.7743 93.9907 37.8113C94.0135 37.8482 94.2456 37.8857 94.5067 37.8944C95.511 37.9281 96.4579 38.0251 96.4579 38.0944C96.4579 38.1342 96.4107 38.3717 96.3531 38.6222C96.2955 38.8727 96.2697 39.0991 96.2957 39.1252C96.3218 39.1514 96.8515 39.0909 97.4729 38.9909C98.0944 38.8909 98.6149 38.809 98.6295 38.809C98.6443 38.809 98.6402 39.0952 98.6205 39.445C98.6008 39.7949 98.6207 40.1172 98.6646 40.1613C98.7114 40.2083 99.0951 40.096 99.5924 39.8897L100.44 39.5379L100.551 40.1303C100.612 40.4562 100.673 40.7322 100.685 40.7437C100.698 40.7552 100.971 40.7874 101.291 40.8154C101.795 40.8595 101.82 40.8552 101.48 40.7831C101.264 40.7374 101.074 40.6869 101.058 40.6707C101.041 40.6545 101.311 40.543 101.657 40.4227L102.285 40.2042L102.585 40.5618C102.878 40.9099 102.881 40.921 102.692 40.9778C102.441 41.0537 102.443 41.0541 103.438 41.0938C103.993 41.1159 104.117 41.1071 103.796 41.0685L103.304 41.0093L103.873 40.7991L104.441 40.5889L104.707 40.844L104.973 41.0991L104.72 41.1558C104.559 41.192 104.694 41.2159 105.094 41.2217C105.48 41.2275 105.673 41.2011 105.598 41.1529C105.506 41.0945 105.576 41.0154 105.874 40.84C106.346 40.5624 106.38 40.5594 106.797 40.7591C107.067 40.8883 107.093 40.9235 106.957 40.9774C106.347 41.2186 108.674 40.8556 110.016 40.5001C110.756 40.3041 112.942 39.4789 113.587 39.1517C114.214 38.8341 115.17 38.2482 115.129 38.2068C115.107 38.1852 114.925 38.2719 114.723 38.3995C114.307 38.6633 114.263 38.6138 114.57 38.2284C114.765 37.9839 114.802 37.9711 115.024 38.0724C115.311 38.2039 115.198 38.2664 116.639 37.1864C117.907 36.2357 119.12 35.0385 120.286 33.5845C120.687 33.0834 120.732 32.8843 120.342 33.3309C120.19 33.5052 120.092 33.572 120.121 33.4807C120.15 33.3903 120.174 33.2819 120.174 33.2399C120.174 33.167 120.479 33.0304 120.664 33.021C120.772 33.0156 121.459 31.9859 121.396 31.9231C121.371 31.8979 121.286 32.0024 121.207 32.1551C121.054 32.4522 120.979 32.5049 120.979 32.3153C120.979 32.1278 121.192 31.8864 121.383 31.8582C121.679 31.8147 122.809 29.4023 123.343 27.6732C123.643 26.7044 123.934 25.4178 123.924 25.1095C123.915 24.8475 123.914 24.847 123.843 25.0689L123.771 25.2934L123.764 25.0689C123.755 24.8094 123.921 24.4747 123.942 24.7097C123.965 24.9727 124.09 24.299 124.092 23.9014C124.093 23.5963 124.078 23.5523 124.031 23.7218C123.977 23.9191 123.961 23.9264 123.906 23.7819C123.87 23.6878 123.896 23.5411 123.968 23.4389C124.059 23.3074 124.105 23.2916 124.14 23.3788C124.166 23.444 124.19 23.364 124.194 23.201C124.198 23.0381 124.138 22.7818 124.06 22.6316C123.932 22.3831 123.932 22.3265 124.061 22.0035C124.186 21.6891 124.188 21.6208 124.071 21.4055C123.994 21.2624 123.938 21.2197 123.936 21.3016C123.934 21.3782 123.975 21.483 124.026 21.5345C124.091 21.5996 124.08 21.708 123.989 21.8892C123.631 22.6085 123.492 23.1029 123.44 23.8477C123.4 24.4249 123.414 24.6655 123.491 24.7136C123.563 24.7582 123.575 24.865 123.527 25.0369L123.456 25.2934L123.392 25.024L123.327 24.7546L123.317 25.035C123.301 25.4573 122.898 26.976 122.597 27.7508C121.517 30.5296 121.06 31.3211 119.505 33.1064C117.921 34.9256 116.459 36.1428 114.52 37.2561C113.381 37.9105 111.087 38.7138 109.549 38.9973C109.194 39.0628 108.947 39.1434 109 39.1763C109.135 39.2602 108.646 40.0862 108.509 40.0061C108.452 39.973 108.224 39.8222 108.003 39.671L107.6 39.396L107.868 39.3376C108.11 39.2853 108.098 39.2783 107.754 39.2687C107.396 39.2588 107.338 39.2934 106.853 39.8122L106.334 40.3663L105.997 39.9244L105.66 39.4826L105.959 39.4346C106.263 39.3858 106.272 39.3873 104.602 39.2192C104.377 39.1965 104.446 39.2216 104.758 39.2758C105.066 39.3292 105.316 39.3976 105.314 39.4278C105.312 39.4579 105.119 39.692 104.887 39.9479L104.464 40.4132L104.125 39.7907C103.791 39.1768 103.789 39.1682 103.992 39.1606C104.106 39.1564 103.655 39.039 102.991 38.8998C102.326 38.7606 101.44 38.528 101.022 38.3828C100.239 38.1112 99.932 38.0872 100.16 38.3157C100.269 38.4252 100.438 39.2456 100.366 39.3176C100.329 39.3545 98.9592 38.8095 98.8167 38.7011C98.7604 38.6583 98.6645 38.3519 98.6034 38.0202C98.5425 37.6885 98.4771 37.3897 98.4583 37.3561C98.4395 37.3226 98.014 37.4337 97.5129 37.6031C97.0118 37.7724 96.5894 37.911 96.5746 37.911C96.5596 37.911 96.5474 37.5069 96.5474 37.0129C96.5474 36.519 96.5171 36.1157 96.4803 36.1167C96.4434 36.1177 96.0407 36.2145 95.5853 36.3318C94.6241 36.5795 94.6719 36.638 94.9331 35.5322C95.0263 35.1376 95.0856 34.7977 95.065 34.7771C95.0444 34.7563 94.6555 34.8386 94.2007 34.9597L93.3737 35.18L92.5757 34.7344L91.7776 34.2888L92.7978 33.7749L93.8178 33.261L93.4151 33.1533C92.1285 32.8091 91.8836 32.7316 91.8809 32.6678C91.8792 32.6291 92.0859 32.3787 92.3401 32.1114C92.7916 31.6366 92.7975 31.6236 92.5941 31.5479C92.4796 31.5053 92.1151 31.4199 91.7841 31.3582L91.1822 31.246L91.567 30.7393C91.7785 30.4607 91.9768 30.1895 92.0075 30.1367C92.0381 30.0839 91.9636 29.7202 91.8418 29.3284C91.6557 28.7299 91.347 26.9427 91.1171 25.1325L91.0624 24.7021L91.5005 24.8778C92.4032 25.2401 92.5041 25.3047 92.9076 25.779C93.2543 26.1866 93.6887 27.085 93.5808 27.1712C93.5635 27.1851 93.3031 27.3622 93.002 27.5647C92.3719 27.9887 91.9515 28.4488 92.0232 28.6361C92.0504 28.7073 92.0727 28.8368 92.0727 28.9236C92.0727 29.0311 92.1913 29.1173 92.4434 29.1932C92.7985 29.2999 92.8577 29.2865 93.8476 28.8752L94.881 28.4457L95.5564 28.6878L96.2318 28.9299L96.5297 28.6309L96.8276 28.3321L96.6464 28.0239C96.5468 27.8544 96.2602 27.5588 96.0096 27.3671C95.4956 26.9738 95.4152 26.8408 95.0806 25.8323C94.7869 24.9467 94.211 24.1599 93.4471 23.6002C93.0229 23.2895 92.7058 23.1464 92.0595 22.9738C91.4871 22.8209 90.9736 22.6035 90.439 22.2877C90.0085 22.0335 89.6564 21.8094 89.6564 21.7899C89.6564 21.7702 89.9886 21.5021 90.3947 21.194C90.8008 20.8859 91.1564 20.5997 91.1852 20.5579C91.2138 20.5161 91.2867 20.1501 91.3469 19.7445C91.5539 18.3513 92.0024 16.3173 92.2716 15.5522C92.4897 14.9319 93.2464 13.2791 93.3782 13.1348C93.3958 13.1156 93.5982 13.3099 93.8281 13.5664C94.1602 13.9371 94.4573 14.1368 95.2744 14.5386C96.2176 15.0023 96.3637 15.0474 97.0373 15.0829C98.2937 15.1491 99.3044 14.8013 100.359 13.9396L100.888 13.508L101.319 13.7329C101.878 14.0251 102.889 14.1195 103.073 13.8968C103.358 13.5522 102.593 12.557 101.72 12.1368C101.27 11.9201 101.249 11.8945 101.153 11.4184C100.935 10.3402 100.65 9.83991 100.131 9.62393C99.3129 9.28402 99.0872 10.0351 99.5098 11.69C99.6117 12.089 99.6066 12.1496 99.4563 12.3162C99.196 12.6048 98.1986 13.0575 97.7216 13.1035C96.9668 13.1763 96.0323 12.8305 95.0931 12.1309C94.5016 11.6902 94.4648 11.5418 94.816 11.0128C95.5196 9.95351 96.3435 9.11689 97.3418 8.4483C98.1115 7.93282 98.7815 7.70408 99.9341 7.56354C100.391 7.50777 100.974 7.38249 101.229 7.28505C101.509 7.17819 101.913 7.10805 102.247 7.10805C103.235 7.10796 103.878 6.71875 104.25 5.8956C104.472 5.40589 104.586 5.28708 105.508 4.59343C106.066 4.17359 106.632 3.66844 106.767 3.47087C107.269 2.73563 106.994 1.93386 106.095 1.50702C105.425 1.18893 104.407 0.918076 103.627 0.850453C103.073 0.802408 102.917 0.751398 102.675 0.537663C102.013 -0.045529 100.948 -0.172064 100.217 0.245618ZM110.061 3.06674C110.114 3.16553 110.177 3.24635 110.201 3.24635C110.226 3.24635 110.203 3.16553 110.15 3.06674C110.098 2.96796 110.035 2.88714 110.01 2.88714C109.985 2.88714 110.008 2.96796 110.061 3.06674ZM111.851 3.95725C111.925 3.99946 112.126 4.05846 112.298 4.08836L112.612 4.14279L112.298 4.01571C111.935 3.86816 111.624 3.82757 111.851 3.95725ZM115.162 5.3142C115.162 5.4886 115.151 5.49022 114.885 5.35246C114.473 5.13863 114.481 5.2481 114.895 5.48124L115.252 5.68258V5.40742C115.252 5.25609 115.231 5.13225 115.207 5.13225C115.182 5.13225 115.162 5.21416 115.162 5.3142ZM116.243 6.50178C116.247 6.61287 116.271 6.65301 116.296 6.59095C116.329 6.50842 116.417 6.53069 116.624 6.67357L116.907 6.86917L116.644 6.5844C116.333 6.24772 116.234 6.22706 116.243 6.50178ZM40.7927 16.8518V26.865H42.5379H44.283V26.277V25.6889L44.6863 25.9673C48.0128 28.264 52.3964 26.9977 54.1841 23.2238C54.7493 22.0306 54.8808 21.3989 54.875 19.9051C54.8713 18.9193 54.8298 18.4985 54.6825 17.9561C53.8419 14.859 51.2582 12.761 48.2926 12.7672C46.9798 12.77 45.7233 13.1639 44.72 13.8872L44.283 14.2023V10.5204V6.83854H42.5379H40.7927V16.8518ZM64.5086 17.8699C64.5086 23.9372 64.4819 30.1202 64.4494 31.61L64.3902 34.3188H64.7032H65.016L65.0755 26.3037C65.1082 21.8954 65.135 15.7124 65.135 12.5636L65.1351 6.83854H64.8218H64.5086V17.8699ZM35.6468 7.34702C34.5127 7.94701 34.1973 9.40992 34.9933 10.3789C35.3857 10.8567 35.8946 11.0895 36.55 11.0914C37.291 11.0936 37.827 10.7823 38.1971 10.1347C38.7784 9.11761 38.4183 7.90857 37.3732 7.36911C36.9563 7.15403 36.0341 7.14218 35.6468 7.34702ZM118.059 7.90318C118.151 8.00556 118.186 8.13542 118.15 8.23995C118.093 8.40142 118.098 8.40223 118.253 8.25575C118.411 8.10632 118.411 8.09554 118.252 7.91899C118.162 7.81867 118.047 7.73659 117.998 7.73659C117.949 7.73659 117.976 7.81158 118.059 7.90318ZM119.906 9.98279C120.12 10.2847 120.221 10.2728 120.285 9.93816C120.324 9.73241 120.301 9.7123 120.021 9.7123H119.714L119.906 9.98279ZM120.174 9.94777C120.174 10.0671 120.149 10.0733 120.04 9.98171C119.966 9.9202 119.905 9.85464 119.905 9.83605C119.905 9.81737 119.966 9.8021 120.04 9.8021C120.113 9.8021 120.174 9.86766 120.174 9.94777ZM121.191 12.0005C121.126 12.1703 121.138 12.1844 121.412 12.269C121.601 12.3274 121.612 12.316 121.523 12.1505C121.385 11.891 121.255 11.8325 121.191 12.0005ZM25.6856 12.8561C23.5453 13.1573 22.0395 14.2396 21.3133 15.9986C21.1192 16.4686 21.071 16.7311 21.0658 17.3457C21.0602 18.0121 21.092 18.1758 21.3165 18.6345C21.6988 19.4157 22.3742 20.0418 23.36 20.5288C24.3517 21.0188 25.1245 21.2254 26.7365 21.4314C29.1768 21.7433 30.2657 22.25 29.9333 22.9191C29.7633 23.2611 29.1044 23.7037 28.4742 23.899C26.9847 24.3606 25.0042 23.8522 24.3706 22.8457L24.1916 22.5613L22.4241 22.5579C20.4027 22.5538 20.5213 22.491 20.8335 23.4011C21.7568 26.0943 24.3572 27.5066 27.7487 27.1566C29.0589 27.0214 29.6534 26.861 30.6352 26.3775C31.9381 25.7361 32.8324 24.6953 33.1485 23.4528C33.5015 22.0651 32.8432 20.3499 31.6669 19.5924C30.9756 19.1473 30.4742 18.9946 28.7017 18.6892C26.0232 18.2278 24.8199 17.8584 24.5899 17.4271C24.3705 17.0158 25.026 16.2303 25.7794 16.0017C26.9091 15.6589 28.8905 16.1907 29.1138 16.8966C29.1682 17.0687 29.249 17.0763 31.0456 17.0763H32.9207L32.8614 16.8293C32.4205 14.9926 30.9188 13.5443 28.9245 13.0325C28.1488 12.8334 26.4889 12.7429 25.6856 12.8561ZM17.3199 13.0126C17.3001 13.0496 16.7446 15.1915 16.0854 17.7723C15.4263 20.3531 14.8651 22.4646 14.8385 22.4646C14.8118 22.4646 14.2712 20.5348 13.637 18.1764C13.0029 15.8179 12.4286 13.6963 12.3606 13.4616L12.2373 13.0351L10.4732 13.0358L8.70921 13.0364L7.4623 17.7505C6.7765 20.3432 6.19256 22.4646 6.16464 22.4646C6.13671 22.4646 5.61308 20.4742 5.00095 18.0417C4.38881 15.6091 3.85328 13.4874 3.81095 13.3269L3.73389 13.0351H1.84826C0.0957918 13.0351 -0.0342427 13.0462 0.00558207 13.1922C0.0292084 13.2787 1.008 16.3904 2.18073 20.1072L4.31292 26.865H6.17546C7.1999 26.865 8.03801 26.847 8.03801 26.8252C8.03801 26.7379 10.3713 18.1871 10.4394 18.0244C10.5029 17.8729 11.3198 20.625 12.9773 26.5749L13.0591 26.8686L14.8998 26.8444L16.7405 26.8201L18.8763 19.9051C20.051 16.1019 21.0127 12.98 21.0134 12.9677C21.0166 12.9093 17.3514 12.9538 17.3199 13.0126ZM34.7968 16.7395C34.7968 18.777 34.8235 21.8685 34.8561 23.6096L34.9151 26.7752H36.6155H38.3159L38.2567 23.5275C38.2241 21.7414 38.1974 18.6498 38.1974 16.6574V13.0351H36.497H34.7967L34.7968 16.7395ZM122.201 14.0421C122.149 14.2412 122.262 14.3781 122.481 14.3808C122.568 14.3818 122.562 14.3179 122.456 14.1127C122.29 13.7905 122.268 13.7846 122.201 14.0421ZM122.411 14.2025C122.411 14.2519 122.393 14.2923 122.372 14.2923C122.35 14.2923 122.307 14.2519 122.277 14.2025C122.246 14.1531 122.264 14.1127 122.316 14.1127C122.368 14.1127 122.411 14.1531 122.411 14.2025ZM122.955 15.7517C122.959 15.8135 123.014 16.0054 123.079 16.1782C123.197 16.496 123.211 16.4898 123.345 16.052C123.366 15.9826 123.313 15.8613 123.226 15.7826C123.036 15.6104 122.946 15.6001 122.955 15.7517ZM115.981 15.8481C115.899 15.9465 115.906 15.9998 116.01 16.0865C116.185 16.2324 116.437 16.1327 116.398 15.9326C116.36 15.7327 116.117 15.6836 115.981 15.8481ZM130.376 17.4804C130.376 19.1717 130.382 19.2316 130.555 19.2316C130.689 19.2316 130.734 19.1717 130.734 18.9915V18.7512L130.94 18.9458C131.234 19.2222 131.858 19.2858 132.249 19.0793C132.717 18.8321 132.903 18.5187 132.903 17.9743C132.903 17.4298 132.717 17.1164 132.249 16.8696C131.87 16.6697 131.347 16.7164 130.989 16.9824L130.734 17.1715V16.4503C130.734 15.7891 130.719 15.7292 130.555 15.7292C130.382 15.7292 130.376 15.7891 130.376 17.4804ZM123.257 15.9026C123.286 15.9486 123.268 16.0116 123.218 16.0426C123.168 16.0736 123.127 16.036 123.127 15.959C123.127 15.8012 123.181 15.7781 123.257 15.9026ZM49.2151 16.2398C50.4591 16.8267 51.2854 18.1005 51.4089 19.6215C51.5119 20.892 51.0129 22.1858 50.0887 23.0444C49.4062 23.6786 48.7637 23.9358 47.8627 23.9358C46.9564 23.9358 46.32 23.6792 45.6249 23.0334C44.706 22.1797 44.2125 20.9063 44.3081 19.6355C44.5143 16.8927 46.9811 15.1857 49.2151 16.2398ZM98.0688 17.5702C98.0688 19.1717 98.0752 19.2316 98.2478 19.2316C98.4203 19.2316 98.4268 19.1717 98.4268 17.5702C98.4268 15.9687 98.4203 15.9088 98.2478 15.9088C98.0752 15.9088 98.0688 15.9687 98.0688 17.5702ZM124.827 17.5702V19.2316H125.946C126.881 19.2316 127.065 19.2094 127.065 19.0969C127.065 18.9857 126.901 18.9622 126.125 18.9622H125.185V17.4355C125.185 15.9687 125.178 15.9088 125.006 15.9088C124.834 15.9088 124.827 15.9687 124.827 17.5702ZM114.178 16.4477C114.178 16.6751 114.143 16.7171 113.954 16.7171C113.815 16.7171 113.73 16.768 113.73 16.8518C113.73 16.9356 113.815 16.9865 113.954 16.9865H114.178V17.8886C114.178 18.7267 114.193 18.8064 114.397 19.0111C114.63 19.2444 114.968 19.2938 115.26 19.1373C115.509 19.0034 115.384 18.8683 115.069 18.9314C114.613 19.0231 114.536 18.8701 114.536 17.8736V16.9865H114.894C115.152 16.9865 115.252 16.949 115.252 16.8518C115.252 16.7545 115.152 16.7171 114.894 16.7171C114.556 16.7171 114.536 16.7021 114.536 16.4477C114.536 16.2381 114.496 16.1782 114.357 16.1782C114.217 16.1782 114.178 16.2381 114.178 16.4477ZM87.6821 17.4639C87.7934 17.85 87.8703 18.1793 87.8531 18.1956C87.8245 18.2227 87.2008 18.1423 86.4532 18.0149L86.1585 17.9647L86.7664 17.3049C87.1007 16.942 87.398 16.6714 87.4271 16.7035C87.4561 16.7357 87.5709 17.0778 87.6821 17.4639ZM99.4112 17.9743C99.4112 19.1717 99.4197 19.2316 99.5902 19.2316C99.7565 19.2316 99.7692 19.1717 99.7692 18.3835C99.7692 17.6333 99.7924 17.5082 99.9707 17.3003C100.106 17.1426 100.295 17.0486 100.546 17.0149C100.864 16.972 100.953 16.9984 101.15 17.196C101.367 17.4139 101.38 17.4799 101.38 18.3295C101.38 19.1845 101.39 19.2316 101.567 19.2316C101.747 19.2316 101.753 19.1953 101.724 18.2508C101.696 17.3641 101.673 17.2481 101.481 17.0431C101.109 16.6469 100.359 16.6212 99.9638 16.9911L99.7692 17.1731V16.9451C99.7692 16.777 99.7222 16.7171 99.5902 16.7171C99.4197 16.7171 99.4112 16.777 99.4112 17.9743ZM102.633 17.9743C102.633 19.1717 102.641 19.2316 102.812 19.2316C102.978 19.2316 102.991 19.1717 102.991 18.3835C102.991 17.6333 103.014 17.5082 103.192 17.3003C103.328 17.1426 103.517 17.0486 103.767 17.0149C104.086 16.972 104.174 16.9984 104.371 17.196C104.588 17.4139 104.602 17.4799 104.602 18.3295C104.602 19.1845 104.612 19.2316 104.789 19.2316C104.969 19.2316 104.974 19.1953 104.945 18.2508C104.918 17.3641 104.895 17.2481 104.702 17.0431C104.331 16.6469 103.581 16.6212 103.186 16.9911L102.991 17.1731V16.9451C102.991 16.777 102.944 16.7171 102.812 16.7171C102.641 16.7171 102.633 16.777 102.633 17.9743ZM106.326 16.8502C105.7 17.1233 105.468 18.0868 105.88 18.7019C106.424 19.5147 107.786 19.3104 108.095 18.3697C108.441 17.3172 107.368 16.3957 106.326 16.8502ZM108.729 17.7214C108.98 18.2803 109.225 18.851 109.275 18.9895C109.341 19.1716 109.417 19.2338 109.55 19.214C109.693 19.193 109.863 18.9021 110.295 17.9464C110.783 16.8645 110.832 16.7096 110.676 16.734C110.543 16.7547 110.384 17.0176 110.06 17.7498C109.82 18.2931 109.593 18.731 109.556 18.7229C109.519 18.7149 109.299 18.2703 109.067 17.7351C108.745 16.9934 108.601 16.7552 108.46 16.7335C108.292 16.7077 108.318 16.8015 108.729 17.7214ZM111.553 16.8427C111.136 16.9977 111.076 17.0528 111.193 17.1702C111.254 17.2316 111.368 17.2167 111.545 17.1243C111.944 16.9152 112.359 16.9494 112.622 17.2131C113.013 17.6062 112.888 17.7427 112.084 17.7999C111.491 17.8422 111.353 17.8828 111.212 18.0569C110.648 18.7561 111.627 19.5242 112.5 19.0673C112.827 18.8961 112.835 18.896 112.835 19.0617C112.835 19.1552 112.896 19.2316 112.969 19.2316C113.081 19.2316 113.104 19.0625 113.104 18.2488C113.104 17.3576 113.085 17.2444 112.902 17.0357C112.649 16.7464 112.045 16.66 111.553 16.8427ZM115.968 17.9743C115.968 19.1717 115.976 19.2316 116.147 19.2316C116.317 19.2316 116.326 19.1717 116.326 17.9743C116.326 16.777 116.317 16.7171 116.147 16.7171C115.976 16.7171 115.968 16.777 115.968 17.9743ZM117.782 16.8502C117.156 17.1233 116.923 18.0868 117.335 18.7019C117.879 19.5147 119.241 19.3104 119.55 18.3697C119.896 17.3172 118.824 16.3957 117.782 16.8502ZM120.263 17.9743C120.263 19.1717 120.272 19.2316 120.442 19.2316C120.609 19.2316 120.621 19.1717 120.621 18.3835C120.621 17.6333 120.644 17.5082 120.823 17.3003C120.958 17.1426 121.147 17.0486 121.398 17.0149C121.717 16.972 121.805 16.9984 122.002 17.196C122.219 17.4139 122.232 17.4799 122.232 18.3295C122.232 19.1845 122.242 19.2316 122.419 19.2316C122.599 19.2316 122.605 19.1953 122.576 18.2508C122.548 17.3641 122.525 17.2481 122.333 17.0431C121.961 16.6469 121.212 16.6212 120.816 16.9911L120.621 17.1731V16.9451C120.621 16.777 120.574 16.7171 120.442 16.7171C120.272 16.7171 120.263 16.777 120.263 17.9743ZM127.841 16.8427C127.424 16.9977 127.364 17.0528 127.481 17.1702C127.542 17.2316 127.656 17.2167 127.833 17.1243C128.232 16.9152 128.647 16.9494 128.91 17.2131C129.301 17.6062 129.176 17.7427 128.372 17.7999C127.778 17.8422 127.641 17.8828 127.5 18.0569C126.936 18.7561 127.914 19.5242 128.788 19.0673C129.115 18.8961 129.123 18.896 129.123 19.0617C129.123 19.1552 129.184 19.2316 129.257 19.2316C129.369 19.2316 129.392 19.0625 129.392 18.2488C129.392 17.3576 129.373 17.2444 129.19 17.0357C128.937 16.7464 128.333 16.66 127.841 16.8427ZM107.519 17.2918C107.769 17.5421 107.824 17.6651 107.824 17.9743C107.824 18.2835 107.769 18.4066 107.519 18.6569C107.063 19.1149 106.458 19.0439 106.124 18.493C105.897 18.1204 105.897 17.828 106.124 17.4548C106.461 16.9009 107.06 16.8309 107.519 17.2918ZM118.975 17.2918C119.224 17.5421 119.279 17.6651 119.279 17.9743C119.279 18.2835 119.224 18.4066 118.975 18.6569C118.518 19.1149 117.914 19.0439 117.579 18.493C117.352 18.1204 117.353 17.828 117.579 17.4548C117.916 16.9009 118.515 16.8309 118.975 17.2918ZM132.336 17.2961C132.524 17.4845 132.569 17.615 132.569 17.9743C132.569 18.5362 132.287 18.8612 131.735 18.9355C131.401 18.9804 131.335 18.9547 131.05 18.6683C130.789 18.4064 130.734 18.2862 130.734 17.9743C130.734 17.6624 130.789 17.5423 131.05 17.2803C131.335 16.9939 131.401 16.9683 131.735 17.0132C131.965 17.0442 132.191 17.1506 132.336 17.2961ZM112.835 18.2807C112.835 18.547 112.37 18.9622 112.072 18.9622C111.676 18.9622 111.403 18.775 111.403 18.5032C111.403 18.1691 111.601 18.0702 112.276 18.0668C112.808 18.0642 112.835 18.0746 112.835 18.2807ZM123.545 18.2677C123.504 18.4272 123.528 18.604 123.614 18.7617L123.746 19.0071L123.741 18.7377C123.738 18.5895 123.707 18.3672 123.672 18.2437L123.608 18.0192L123.545 18.2677ZM129.123 18.2807C129.123 18.547 128.658 18.9622 128.36 18.9622C127.964 18.9622 127.691 18.775 127.691 18.5032C127.691 18.1691 127.889 18.0702 128.564 18.0668C129.096 18.0642 129.123 18.0746 129.123 18.2807ZM123.733 19.9276C123.711 20.1171 123.752 20.4018 123.828 20.5787L123.962 20.893L124.034 20.5613C124.085 20.3287 124.067 20.1342 123.974 19.9103C123.9 19.7345 123.825 19.5908 123.807 19.5908C123.788 19.5908 123.755 19.7424 123.733 19.9276ZM86.9572 22.4102C87.4103 22.7013 87.7646 22.9559 87.7447 22.9759C87.7247 22.996 87.301 23.1263 86.8029 23.2656L85.8976 23.5189V22.628C85.8976 21.9146 85.9211 21.7515 86.0155 21.809C86.0804 21.8485 86.5041 22.119 86.9572 22.4102ZM123.969 23.1767C123.831 23.3065 123.824 23.2998 123.875 23.0932C123.905 22.9697 123.933 22.8081 123.937 22.734C123.941 22.6599 123.983 22.6974 124.031 22.8175C124.098 22.9859 124.084 23.068 123.969 23.1767ZM123.723 23.1157C123.698 23.1774 123.678 23.1269 123.678 23.0034C123.678 22.8799 123.698 22.8294 123.723 22.8911C123.748 22.9529 123.748 23.054 123.723 23.1157ZM123.691 23.483C123.716 23.5492 123.701 23.6604 123.657 23.73C123.599 23.8221 123.577 23.7893 123.576 23.6096C123.574 23.3414 123.618 23.2931 123.691 23.483ZM123.852 24.415C123.77 24.5553 123.759 24.5465 123.756 24.343C123.755 24.2154 123.784 24.0804 123.821 24.0431C123.928 23.9342 123.954 24.2393 123.852 24.415ZM123.637 24.4161C123.614 24.5035 123.594 24.4537 123.592 24.3056C123.59 24.1574 123.609 24.0859 123.633 24.1467C123.658 24.2075 123.659 24.3287 123.637 24.4161ZM123.449 25.6616C123.417 25.7449 123.371 25.7928 123.347 25.7681C123.322 25.7434 123.328 25.6551 123.36 25.5718C123.392 25.4886 123.438 25.4406 123.462 25.4653C123.487 25.49 123.481 25.5784 123.449 25.6616ZM123.752 25.4955C123.751 25.5326 123.712 25.6235 123.664 25.6975C123.594 25.8065 123.577 25.7935 123.576 25.6302C123.575 25.519 123.615 25.4281 123.664 25.4281C123.713 25.4281 123.753 25.4584 123.752 25.4955ZM123.266 26.3855C123.181 26.7246 123.098 26.5713 123.177 26.2204C123.213 26.0563 123.261 25.9743 123.283 26.0382C123.305 26.102 123.297 26.2584 123.266 26.3855ZM123.577 26.4166C123.53 26.6149 123.5 26.6586 123.494 26.5356C123.485 26.3399 123.573 26.0257 123.623 26.076C123.638 26.0908 123.617 26.2441 123.577 26.4166ZM123.135 27.054C123.056 27.2518 123.048 27.254 123.043 27.0821C123.04 26.9791 123.064 26.868 123.097 26.8351C123.204 26.7278 123.222 26.8342 123.135 27.054ZM123.326 27.1508C123.27 27.207 123.257 27.148 123.29 26.9841C123.328 26.7961 123.351 26.7735 123.377 26.897C123.397 26.9887 123.373 27.1029 123.326 27.1508ZM123.036 27.5129C123.037 27.5482 122.961 27.6184 122.867 27.6688C122.708 27.7541 122.703 27.7418 122.796 27.4949C122.863 27.3164 122.919 27.2653 122.965 27.339C123.004 27.3993 123.035 27.4777 123.036 27.5129ZM123.224 27.6827C123.177 27.801 123.136 27.8505 123.133 27.7929C123.125 27.6527 123.229 27.3868 123.274 27.4319C123.294 27.4515 123.271 27.5643 123.224 27.6827ZM122.832 28.0868C122.752 28.349 122.722 28.3789 122.672 28.244C122.636 28.1445 122.667 28.0141 122.749 27.9202C122.938 27.7035 122.945 27.7173 122.832 28.0868ZM123.002 28.266C122.97 28.3492 122.924 28.3972 122.899 28.3725C122.874 28.3478 122.88 28.2594 122.912 28.1762C122.944 28.0929 122.99 28.045 123.015 28.0696C123.04 28.0943 123.034 28.1827 123.002 28.266ZM122.464 28.7358C122.289 28.9117 122.269 28.7454 122.43 28.4531C122.529 28.2722 122.54 28.2699 122.572 28.4247C122.592 28.5171 122.543 28.6571 122.464 28.7358ZM122.835 28.8632C122.759 29.076 122.722 29.1113 122.698 28.9936C122.68 28.9047 122.713 28.7734 122.773 28.7017C122.935 28.5052 122.949 28.5418 122.835 28.8632ZM122.39 29.1652C122.332 29.2943 122.268 29.3536 122.249 29.2969C122.202 29.1538 122.298 28.9305 122.406 28.9305C122.463 28.9305 122.457 29.0179 122.39 29.1652ZM122.557 29.4274C122.529 29.4999 122.465 29.5591 122.416 29.5591C122.359 29.5591 122.365 29.4718 122.432 29.3245C122.539 29.0887 122.651 29.181 122.557 29.4274ZM91.0554 31.1487C91.0363 31.1678 90.5676 31.0269 90.0136 30.8356L89.0065 30.4878L89.9802 29.9367L90.954 29.3856L91.022 30.2497C91.0595 30.725 91.0745 31.1296 91.0554 31.1487ZM122.143 29.5861C122.143 29.7145 121.968 29.9184 121.858 29.9184C121.82 29.9184 121.834 29.8173 121.89 29.6939C121.999 29.4543 122.143 29.393 122.143 29.5861ZM122.377 29.9778L122.239 30.2327L122.236 29.9932C122.234 29.8615 122.282 29.7357 122.344 29.7136C122.519 29.651 122.525 29.7032 122.377 29.9778ZM121.853 30.2428C121.795 30.372 121.731 30.4312 121.712 30.3746C121.694 30.3179 121.727 30.2123 121.787 30.1398C121.949 29.9436 121.973 29.9798 121.853 30.2428ZM19.7617 30.4572V30.8164H20.3434H20.9251V32.5676V34.3188H21.2364H21.5477L21.572 32.5901L21.5963 30.8613L22.2004 30.8347L22.8045 30.8082V30.4531V30.098H21.2831H19.7617V30.4572ZM41.9562 32.2084V34.3188H42.3141H42.6721V32.2084V30.098H42.3141H41.9562V32.2084ZM122.086 30.3426C122.058 30.4482 121.979 30.5565 121.909 30.5833C121.806 30.623 121.809 30.5813 121.924 30.3566C122.081 30.0522 122.163 30.0451 122.086 30.3426ZM27.6874 30.2688C27.6296 30.3625 26.3842 34.1802 26.3842 34.2634C26.3842 34.2938 26.5239 34.3188 26.6948 34.3188C26.9881 34.3188 27.0121 34.2953 27.129 33.8922L27.2528 33.4657L28.1422 33.4402L29.0316 33.4149L29.1935 33.8668C29.35 34.3034 29.3673 34.3188 29.7006 34.3188H30.0458L29.7488 33.4881C29.5856 33.0313 29.2596 32.1018 29.0245 31.4226L28.597 30.1878H28.1671C27.9307 30.1878 27.7147 30.2242 27.6874 30.2688ZM5.03997 30.4266C4.64217 30.6366 4.2858 30.9962 4.08283 31.3923C3.80719 31.9303 3.88022 32.8337 4.24097 33.3487C4.96399 34.3811 6.34541 34.4991 7.23686 33.6047C7.94753 32.8914 8.03577 31.9498 7.47044 31.1112C7.08705 30.5425 6.56888 30.2765 5.85373 30.2812C5.53657 30.2832 5.19613 30.3441 5.03997 30.4266ZM34.2597 32.2982V34.3188H34.6177H34.9756V33.5106V32.7023H35.7184C36.1768 32.7023 36.5023 32.7435 36.5686 32.8101C36.6338 32.8755 36.676 33.1933 36.676 33.6183V34.3188H37.034H37.392V33.5624C37.392 32.8927 37.3671 32.7762 37.1749 32.547C36.9604 32.2913 36.96 32.2868 37.1367 32.176C37.3951 32.0141 37.5963 31.4739 37.5301 31.1197C37.4996 30.9568 37.3522 30.7006 37.2027 30.5505L36.9307 30.2776H35.5952H34.2597V32.2982ZM48.2655 30.4266C47.8677 30.6366 47.5113 30.9962 47.3083 31.3923C47.0327 31.9303 47.1057 32.8337 47.4665 33.3487C48.1895 34.3811 49.5709 34.4991 50.4624 33.6047C51.173 32.8914 51.2613 31.9498 50.6959 31.1112C50.3126 30.5425 49.7944 30.2765 49.0792 30.2812C48.7621 30.2832 48.4216 30.3441 48.2655 30.4266ZM12.1547 32.3837V34.4086H12.5105H12.8662L12.8908 32.9782L12.9154 31.5477L13.8139 32.9557L14.7124 34.3637L15.1787 34.3908L15.645 34.418V32.3927V30.3674H15.2283H14.8117L14.8684 31.6855C14.9076 32.5963 14.8965 32.975 14.8323 32.9106C14.7812 32.8593 14.4067 32.2762 14.0002 31.6149L13.261 30.4123L12.7079 30.3855L12.1547 30.3589V32.3837ZM121.542 30.6382C121.497 30.8084 121.337 30.9826 121.337 30.8607C121.337 30.7844 121.514 30.4572 121.556 30.4572C121.574 30.4572 121.568 30.5386 121.542 30.6382ZM121.964 30.776C121.964 30.8031 121.894 30.9546 121.81 31.1128C121.664 31.3844 121.654 31.3888 121.624 31.1931C121.606 31.0793 121.64 30.9278 121.699 30.8564C121.805 30.7283 121.964 30.6801 121.964 30.776ZM36.7157 31.0161C36.9023 31.2832 36.8913 31.5597 36.6841 31.8168C36.5277 32.0106 36.4456 32.0288 35.722 32.0288H34.9309L34.9044 31.4226L34.878 30.8164H35.7272C36.5033 30.8164 36.5884 30.8336 36.7157 31.0161ZM6.56396 31.1773C6.9529 31.4185 7.17726 31.9043 7.11497 32.3703C6.93876 33.6886 5.15336 33.9083 4.6819 32.6697C4.49549 32.1799 4.60538 31.6851 4.98072 31.3243C5.446 30.8769 5.99719 30.8258 6.56396 31.1773ZM49.7895 31.1773C50.1784 31.4185 50.4028 31.9043 50.3405 32.3703C50.1643 33.6886 48.3789 33.9083 47.9074 32.6697C47.721 32.1799 47.8309 31.6851 48.2062 31.3243C48.6715 30.8769 49.2227 30.8258 49.7895 31.1773ZM28.5301 31.9785C28.6789 32.3833 28.8006 32.732 28.8006 32.7533C28.8006 32.7747 28.5144 32.7921 28.1645 32.7921C27.6929 32.7921 27.5394 32.7631 27.5707 32.6799C27.5939 32.6182 27.7274 32.2138 27.8673 31.7814C28.1512 30.9044 28.1335 30.8991 28.5301 31.9785ZM121.259 31.3261C121.181 31.4607 121.163 31.4645 121.161 31.3478C121.158 31.1966 121.252 31.0603 121.316 31.124C121.336 31.145 121.311 31.2359 121.259 31.3261ZM121.436 31.6515C121.278 31.81 121.233 31.665 121.356 31.3922C121.468 31.1432 121.472 31.142 121.501 31.346C121.518 31.4613 121.488 31.5987 121.436 31.6515ZM91.3782 32.0681C91.5931 32.6332 91.628 32.8437 91.6062 33.4426L91.5805 34.1497L90.4381 33.1342C89.8097 32.5756 89.2862 32.0826 89.2747 32.0385C89.2502 31.9454 90.801 31.3534 90.9945 31.3818C91.0663 31.3924 91.238 31.6995 91.3782 32.0681ZM120.979 31.6551C120.979 31.7932 120.901 31.901 120.751 31.9696C120.508 32.0809 120.506 32.0885 120.799 31.6464C120.966 31.3951 120.979 31.3958 120.979 31.6551ZM120.716 32.2308C120.667 32.3172 120.551 32.4837 120.459 32.6007L120.291 32.8136L120.331 32.5433C120.354 32.3818 120.448 32.2352 120.563 32.1794C120.822 32.0535 120.819 32.0524 120.716 32.2308ZM120.829 32.5346C120.803 32.6687 120.69 32.8136 120.568 32.8694L120.353 32.9679L120.59 32.6087C120.855 32.2058 120.894 32.1938 120.829 32.5346ZM120.194 32.6799C120.136 33.0049 120.012 33.1513 119.797 33.1513C119.641 33.1513 119.653 33.1122 119.905 32.7921C120.061 32.5946 120.2 32.4329 120.214 32.4329C120.227 32.4329 120.218 32.5441 120.194 32.6799ZM119.905 33.317C119.905 33.3588 119.825 33.4661 119.726 33.5555C119.628 33.6448 119.547 33.7592 119.547 33.8095C119.547 33.8599 119.648 33.8062 119.771 33.6902C120.008 33.4668 120.054 33.5002 119.903 33.7846C119.806 33.9654 119.367 34.0009 119.37 33.8278C119.373 33.5814 119.491 33.3366 119.624 33.3013C119.869 33.2359 119.905 33.238 119.905 33.317ZM119.185 34.0992C119.126 34.1706 118.974 34.229 118.848 34.229H118.617L118.926 33.9086C119.21 33.6127 119.236 33.6027 119.263 33.7788C119.279 33.8837 119.244 34.0278 119.185 34.0992ZM119.454 34.4138C119.347 34.5648 119.238 34.6671 119.212 34.6411C119.145 34.574 119.443 34.1392 119.555 34.1392C119.607 34.1392 119.561 34.2628 119.454 34.4138ZM118.743 34.6318C118.406 34.9813 118.349 34.9844 118.433 34.6488C118.484 34.4429 118.578 34.3862 118.961 34.331C119.007 34.3243 118.909 34.4596 118.743 34.6318ZM119 34.7588C118.924 34.978 118.563 35.2236 118.563 35.0562C118.563 35.0039 119.02 34.4984 119.067 34.4984C119.08 34.4984 119.05 34.6156 119 34.7588ZM118.293 34.7903C118.291 35.0847 118.198 35.1813 117.849 35.2494L117.539 35.3102L117.89 34.9491C118.083 34.7507 118.253 34.5882 118.268 34.5882C118.282 34.5882 118.294 34.6791 118.293 34.7903ZM118.373 35.5761C118.215 35.7736 118.071 35.9353 118.054 35.9353C118.036 35.9353 118.104 35.7736 118.205 35.5761C118.305 35.3785 118.449 35.2169 118.524 35.2169C118.621 35.2169 118.578 35.3201 118.373 35.5761ZM117.677 35.6712C117.24 36.0677 117.144 36.0744 117.325 35.6959C117.431 35.4747 117.592 35.3883 118.026 35.3209C118.051 35.3172 117.894 35.4748 117.677 35.6712ZM117.096 35.9705C116.992 36.2197 116.91 36.2945 116.738 36.2945C116.615 36.2945 116.494 36.2603 116.468 36.2184C116.424 36.1472 117.143 35.5613 117.203 35.6196C117.218 35.6343 117.17 35.7922 117.096 35.9705ZM117.874 35.8904C117.76 36.1298 117.67 36.2043 117.495 36.2034C117.273 36.2021 117.277 36.1917 117.623 35.8925C117.82 35.7222 117.991 35.5813 118.002 35.5795C118.014 35.5776 117.956 35.7175 117.874 35.8904ZM116.636 36.5053C116.539 36.5717 116.35 36.6973 116.215 36.7841L115.97 36.942L116.067 36.6632C116.152 36.4204 116.206 36.3843 116.488 36.3843C116.788 36.3843 116.799 36.3936 116.636 36.5053ZM117.217 36.65C116.819 36.9912 116.722 36.9924 116.921 36.6537C117.03 36.4688 117.15 36.3843 117.303 36.3843C117.522 36.3843 117.52 36.3899 117.217 36.65ZM115.917 36.7778C115.866 36.9842 115.813 37.0129 115.488 37.0126L115.117 37.0121L115.516 36.7467C115.735 36.6007 115.929 36.495 115.946 36.5119C115.962 36.5289 115.95 36.6485 115.917 36.7778ZM116.649 36.903C116.538 37.1189 116.468 37.1608 116.281 37.1248C116.154 37.1003 116.069 37.0604 116.094 37.0358C116.206 36.9228 116.731 36.5857 116.757 36.6099C116.773 36.6248 116.724 36.7567 116.649 36.903ZM115.495 37.2599C115.417 37.3463 115.233 37.4878 115.087 37.5744L114.821 37.7317L114.917 37.4172C115.003 37.1363 115.046 37.1027 115.325 37.1027C115.617 37.1027 115.628 37.113 115.495 37.2599ZM114.749 37.5374C114.69 37.8334 114.52 37.8902 114.139 37.7407C113.99 37.6821 114.021 37.6422 114.363 37.4481C114.581 37.3247 114.77 37.2303 114.782 37.2386C114.795 37.2469 114.78 37.3813 114.749 37.5374ZM116.324 37.2599C116.321 37.3408 115.61 37.8568 115.61 37.7776C115.61 37.7473 115.671 37.6032 115.746 37.4575C115.842 37.2724 115.949 37.1926 116.104 37.1926C116.226 37.1926 116.325 37.2228 116.324 37.2599ZM115.48 37.723C115.329 38.016 115.305 38.0268 115.041 37.9228C114.898 37.8662 114.922 37.8264 115.22 37.6256C115.41 37.4981 115.578 37.4053 115.594 37.4195C115.61 37.4337 115.558 37.5703 115.48 37.723ZM113.486 38.2215L113.319 38.5491L113.066 38.3495L112.813 38.15L113.205 37.9951C113.42 37.91 113.609 37.8524 113.625 37.8672C113.641 37.882 113.578 38.0414 113.486 38.2215ZM114.267 37.9041C114.478 37.9653 114.464 37.9828 114.021 38.2109C113.763 38.344 113.551 38.43 113.551 38.402C113.551 38.374 113.613 38.2319 113.688 38.0861C113.829 37.8125 113.888 37.7939 114.267 37.9041ZM114.267 38.4498C114.073 38.7238 113.955 38.7658 113.681 38.66C113.56 38.6134 113.611 38.5565 113.919 38.3947C114.44 38.1211 114.494 38.1297 114.267 38.4498ZM112.477 38.3017C112.477 38.3191 112.433 38.4605 112.379 38.6161C112.266 38.9412 112.124 38.973 111.9 38.7235C111.746 38.5539 111.751 38.5441 112.042 38.4166C112.354 38.2802 112.477 38.2476 112.477 38.3017ZM112.988 38.4482L113.213 38.6262L113.002 38.7057C112.886 38.7493 112.699 38.8136 112.587 38.8486L112.384 38.912L112.537 38.5911C112.621 38.4146 112.706 38.2702 112.726 38.2702C112.746 38.2702 112.864 38.3503 112.988 38.4482ZM101.142 38.5638L101.744 38.7676L101.164 39.0545C100.523 39.3719 100.561 39.3909 100.444 38.6968C100.413 38.5116 100.422 38.36 100.464 38.36C100.506 38.36 100.811 38.4517 101.142 38.5638ZM99.2322 38.5396C99.1584 38.5875 99.1382 38.6266 99.1875 38.6266C99.2367 38.6266 99.3374 38.5875 99.4112 38.5396C99.485 38.4918 99.5052 38.4526 99.4559 38.4526C99.4067 38.4526 99.306 38.4918 99.2322 38.5396ZM111.286 39.0691L111.164 39.3605L110.866 39.1096L110.569 38.8586L110.964 38.7605C111.181 38.7065 111.37 38.6883 111.383 38.72C111.397 38.7517 111.353 38.9088 111.286 39.0691ZM112.094 39.0379C112.104 39.0402 111.933 39.1088 111.714 39.1904L111.315 39.3387L111.449 39.018C111.522 38.8416 111.582 38.675 111.582 38.6478C111.582 38.6204 111.693 38.6961 111.828 38.8159C111.964 38.9356 112.083 39.0354 112.094 39.0379ZM113.674 38.7979C113.827 38.8582 113.82 38.8777 113.599 39.0232C113.321 39.206 113.241 39.1717 113.325 38.9056C113.389 38.7053 113.417 38.6966 113.674 38.7979ZM102.979 38.9974L103.55 39.1061L103.337 39.2698C103.221 39.3599 102.956 39.5568 102.749 39.7076L102.373 39.9817L102.288 39.6423C102.079 38.8024 102.078 38.7915 102.249 38.8416C102.337 38.8675 102.666 38.9375 102.979 38.9974ZM113.192 38.9213C113.189 39.1665 113.063 39.2294 112.746 39.1448L112.433 39.0613L112.701 38.9425C113.049 38.7884 113.194 38.7822 113.192 38.9213ZM102.104 39.3933C102.165 39.6653 102.194 39.9077 102.17 39.932C102.128 39.9743 100.856 39.5703 100.775 39.489C100.727 39.4414 101.739 38.9093 101.888 38.9032C101.946 38.9008 102.043 39.1214 102.104 39.3933ZM110.203 39.2978C110.088 39.5753 110.042 39.612 109.907 39.5336C109.64 39.378 109.401 39.1722 109.441 39.1332C109.488 39.0879 110.274 38.9221 110.312 38.9495C110.327 38.9604 110.278 39.1171 110.203 39.2978ZM110.788 39.2091L111.05 39.4296L110.68 39.5294C110.477 39.5842 110.296 39.6137 110.277 39.5948C110.238 39.5558 110.44 38.9886 110.493 38.9886C110.512 38.9886 110.645 39.0879 110.788 39.2091ZM104.294 40.4006C104.252 40.4557 102.624 40.1006 102.623 40.0363C102.622 39.9952 102.855 39.7867 103.139 39.573L103.657 39.1845L103.983 39.7826C104.162 40.1115 104.302 40.3896 104.294 40.4006ZM108.339 39.2318C108.451 39.2532 108.612 39.2524 108.697 39.23C108.783 39.2075 108.692 39.1899 108.495 39.1909C108.298 39.1919 108.228 39.2103 108.339 39.2318ZM112.046 39.5471C111.986 39.6075 111.872 39.6078 111.702 39.5478L111.448 39.4581L111.761 39.3198C112.042 39.1958 112.078 39.1957 112.105 39.3192C112.122 39.3948 112.096 39.4974 112.046 39.5471ZM112.634 39.2248C112.875 39.2896 112.895 39.3994 112.679 39.4619C112.592 39.4868 112.452 39.5362 112.365 39.5718C112.248 39.6203 112.209 39.5929 112.209 39.4623C112.209 39.1782 112.291 39.1325 112.634 39.2248ZM109.585 39.4601C109.748 39.5713 109.881 39.6848 109.881 39.7126C109.882 39.7402 109.671 39.8167 109.412 39.8825C109.154 39.9483 108.89 40.0214 108.827 40.0451C108.764 40.0687 108.824 39.9026 108.961 39.6759C109.099 39.4493 109.228 39.2625 109.25 39.2609C109.272 39.2593 109.422 39.3489 109.585 39.4601ZM108.161 39.9486C108.323 40.082 108.36 40.1514 108.271 40.1549C108.197 40.1576 107.784 40.2131 107.354 40.2782C106.923 40.3432 106.571 40.374 106.571 40.3467C106.571 40.3194 106.759 40.1054 106.989 39.8713L107.406 39.4455L107.661 39.5964C107.801 39.6795 108.026 39.8379 108.161 39.9486ZM106.043 40.2684C106.122 40.4123 106.068 40.4255 105.398 40.4255H104.666L105.059 39.9884L105.452 39.5511L105.704 39.8312C105.843 39.9852 105.996 40.182 106.043 40.2684ZM111.843 39.7071C111.943 39.7071 111.763 39.7988 111.324 39.9727L110.841 40.1636L110.972 39.9577C111.044 39.8446 111.131 39.7045 111.165 39.6464C111.209 39.5717 111.311 39.5651 111.516 39.6239C111.675 39.6696 111.822 39.7071 111.843 39.7071ZM101.408 39.8827C101.744 39.9938 102.005 40.0974 101.99 40.1128C101.974 40.1283 101.696 40.2412 101.371 40.3639L100.78 40.587L100.692 40.0981C100.629 39.7497 100.632 39.6195 100.701 39.645C100.754 39.6647 101.073 39.7717 101.408 39.8827ZM110.885 39.883C110.75 40.1193 110.714 40.1359 110.559 40.0325C110.209 39.7996 110.309 39.6757 110.885 39.6295C111.028 39.618 111.028 39.6329 110.885 39.883ZM109.705 40.1534C109.448 40.5161 109.433 40.5205 109.08 40.3377L108.771 40.1771L109.215 40.0413C109.876 39.8387 109.921 39.8491 109.705 40.1534ZM110.385 40.0588L110.603 40.2309L110.134 40.3689C109.876 40.4448 109.655 40.4975 109.644 40.486C109.613 40.4552 110.066 39.8867 110.12 39.8867C110.146 39.8867 110.265 39.9641 110.385 40.0588ZM103.519 40.4334L104.092 40.544L103.698 40.7043C103.139 40.9315 103.043 40.9153 102.763 40.5468L102.514 40.219L102.73 40.2709C102.849 40.2994 103.204 40.3725 103.519 40.4334ZM108.222 40.3182C107.904 40.589 107.459 40.8739 107.36 40.8708C107.237 40.8669 106.581 40.5309 106.66 40.5124C106.718 40.4986 108.111 40.2707 108.222 40.2567C108.276 40.2499 108.276 40.2726 108.222 40.3182ZM108.987 40.4255C109.159 40.5202 109.274 40.5993 109.241 40.6014C109.208 40.6034 108.869 40.6652 108.487 40.7386C108.104 40.812 107.777 40.858 107.76 40.8408C107.727 40.8074 108.553 40.2462 108.629 40.2508C108.654 40.2522 108.815 40.3309 108.987 40.4255ZM106.034 40.5601C106.034 40.5847 105.843 40.7241 105.609 40.8701L105.184 41.1353L104.931 40.8927L104.678 40.65L104.975 40.5945C105.355 40.5236 106.034 40.5016 106.034 40.5601ZM102.029 40.9364C102.115 40.9591 102.256 40.9591 102.342 40.9364C102.428 40.9139 102.358 40.8954 102.185 40.8954C102.013 40.8954 101.943 40.9139 102.029 40.9364ZM106.057 41.1186C106.193 41.1392 106.395 41.1387 106.505 41.1174C106.615 41.0961 106.504 41.0792 106.257 41.0798C106.011 41.0806 105.921 41.098 106.057 41.1186Z" style="fill: rgb(40, 144, 225);"/>
</svg>